<svg xmlns="http://www.w3.org/2000/svg" viewBox="-180 -52 284 62" width="284" height="62">
  <path fill="#ffffff" d="M18.329,5.206-5.886-40.407h-5.179l-23.82,45.6-140.567-.012V-46.891H5.693L29.1-2.645h4.922L57.29-46.891H103.7V5.182ZM15.054,8.823h93.33V-51.1H54.572L31.353-7.632,8.281-51.1H-179.9V8.823H-31.454l7.082-13.912H7.56ZM5.685-9.24H-22.579L-8.457-36.132ZM59.23-1.356H95.771V-5.715H64.2v-12.8H94.375v-4.357H64.2v-11.4H95.716v-4.358H59.23Zm-206.09-32.91c9.556,0,12.4.111,15.254.56,2.515.39,3.855,1.507,4.19,3.631a73.6,73.6,0,0,1,.559,10.338,69.747,69.747,0,0,1-.615,9.5,4.279,4.279,0,0,1-3.8,3.8,91.783,91.783,0,0,1-13.13.726c-2.4,0-8.661-.166-10.673-.278-4.133-.28-5.643-.671-6.648-1.733-1.175-1.285-1.565-4.525-1.565-12.8,0-7.151.559-10.672,1.9-11.9,1.452-1.342,5.252-1.845,14.526-1.845m2.906-4.469c-3.241,0-9.666.167-11.9.279-5.085.336-6.985.839-8.884,2.236-2.738,2.122-3.632,6.09-3.632,16.091,0,6.035.224,9.5.839,11.958a8,8,0,0,0,6.09,6.034c2.793.615,9.163.895,19.109.895,11.4,0,15.533-.727,17.712-3.018,2.067-2.235,2.849-6.426,2.849-15.588,0-2.849-.167-6.594-.391-8.493-.391-3.967-1.061-5.866-2.626-7.375-2.4-2.4-6.425-3.017-19.165-3.017m75.491.111v4.358h18.718v32.91h4.973v-32.91h18.606v-4.358Zm-8.88,24.529-.056,1.676c0,4.637-.781,5.643-4.525,6.2-1.452.225-7.934.5-11.622.5-4.525,0-9.611-.166-12.068-.446-3.129-.28-4.358-1.452-4.806-4.3-.223-1.843-.558-7.822-.558-10.9,0-6.481.67-10.057,2.067-11.231,1.507-1.174,6.034-1.676,15.867-1.676,6.481,0,10.84.391,12.684,1.061,2.123.84,2.682,1.956,2.738,5.645v1.285h4.638c-.112-6.426-.336-7.6-2.012-9.276-2.4-2.458-6.37-3.184-17.824-3.184-2.961,0-7.877.111-10.224.279-5.587.336-7.711.839-9.5,2.236-2.571,2.066-3.464,6.481-3.464,16.818,0,9,.782,13.13,2.906,15.2,2.458,2.4,6.37,2.962,21.064,2.962,11.51,0,15.03-.559,17.209-2.627,1.732-1.676,2.011-3.073,2.291-10.224Z"/>
</svg>
